# xmcd
#
# Track frame offsets:
#	150
#	17226
#	30342
#	31258
#	53079
#	66028
#	80619
#	94271
#	110406
#	125935
#	140798
#	153897
#	168168
#	185024
#
# Disc length: 2619 seconds
#
# Revision: 1
# Processed by: cddbd v1.5.2PL0 Copyright (c) Steve Scherf et al.
# Submitted via: audiograbber 1.83.01
#
DISCID=ba0a390e
DTITLE=Hillcrest - Hillcrest Pure Country 75
DYEAR=2014
DGENRE=
TTITLE0=Toques And Boots And Misteltoes -Sherry Kennedy
TTITLE1=I Wish Evryday Could Be Like Christmas -George Hamilton IV
TTITLE2=Xmas Radio Liner -Clelia Adams
TTITLE3=Forever Young -Clelia Adams
TTITLE4=On A Snowy CVhristmas Night -Mel Gibson
TTITLE5=My Blue Christmas -Katie Grant
TTITLE6=Chrirmas In Your Arms -Robert Mizzell
TTITLE7=Christmas In Dixie Swiss Highwaymen
TTITLE8=Christmas On My Mind -Sherry Lynn
TTITLE9=Walkin´ The Sea -Lonnie Bartmess
TTITLE10=SWanta´s Rockship -Bonita Mercer
TTITLE11=You´re A Lucky Man Mr Santa -Laurie Muggleton
TTITLE12=Wrap Me Up For Christmas -Lorine McDonald with Keith McDonald
TTITLE13=Try A Little Kindness -Anetta Hawkins and Kim Copedo
EXTD=
EXTT0=
EXTT1=
EXTT2=
EXTT3=
EXTT4=
EXTT5=
EXTT6=
EXTT7=
EXTT8=
EXTT9=
EXTT10=
EXTT11=
EXTT12=
EXTT13=
PLAYORDER=
